<mxfile host="app.diagrams.net" agent="Mozilla/5.0 (Windows NT 10.0; Win64; x64) AppleWebKit/537.36 (KHTML, like Gecko) Chrome/128.0.0.0 Safari/537.36" version="24.7.16">
  <diagram name="Page-1" id="b520641d-4fe3-3701-9064-5fc419738815">
    <mxGraphModel dx="1434" dy="772" grid="1" gridSize="10" guides="1" tooltips="1" connect="1" arrows="1" fold="1" page="1" pageScale="1" pageWidth="1100" pageHeight="850" background="none" math="0" shadow="0">
      <root>
        <mxCell id="0" />
        <mxCell id="1" parent="0" />
        <mxCell id="dPLGzWcnf-cAGPm4xfwv-1" value="" style="whiteSpace=wrap;html=1;aspect=fixed;" vertex="1" parent="1">
          <mxGeometry x="100" y="70" width="330" height="330" as="geometry" />
        </mxCell>
        <mxCell id="dPLGzWcnf-cAGPm4xfwv-44" value="" style="ellipse;whiteSpace=wrap;html=1;aspect=fixed;" vertex="1" parent="1">
          <mxGeometry x="223.75" y="190" width="196.25" height="196.25" as="geometry" />
        </mxCell>
        <mxCell id="dPLGzWcnf-cAGPm4xfwv-25" value="" style="ellipse;whiteSpace=wrap;html=1;aspect=fixed;" vertex="1" parent="1">
          <mxGeometry x="230" y="200" width="180" height="180" as="geometry" />
        </mxCell>
        <mxCell id="dPLGzWcnf-cAGPm4xfwv-3" style="edgeStyle=orthogonalEdgeStyle;rounded=0;orthogonalLoop=1;jettySize=auto;html=1;exitX=1;exitY=0.5;exitDx=0;exitDy=0;entryX=0.986;entryY=0.531;entryDx=0;entryDy=0;entryPerimeter=0;" edge="1" parent="1" source="dPLGzWcnf-cAGPm4xfwv-1" target="dPLGzWcnf-cAGPm4xfwv-1">
          <mxGeometry relative="1" as="geometry" />
        </mxCell>
        <mxCell id="dPLGzWcnf-cAGPm4xfwv-5" value="Players" style="rounded=1;whiteSpace=wrap;html=1;" vertex="1" parent="1">
          <mxGeometry x="110" y="110" width="120" height="60" as="geometry" />
        </mxCell>
        <mxCell id="dPLGzWcnf-cAGPm4xfwv-6" value="CONTEXT" style="rounded=0;whiteSpace=wrap;html=1;" vertex="1" parent="1">
          <mxGeometry x="250" y="80" width="120" height="30" as="geometry" />
        </mxCell>
        <mxCell id="dPLGzWcnf-cAGPm4xfwv-8" value="Game Board Data / Back End Additional" style="rounded=1;whiteSpace=wrap;html=1;" vertex="1" parent="1">
          <mxGeometry x="255" y="300" width="120" height="60" as="geometry" />
        </mxCell>
        <mxCell id="dPLGzWcnf-cAGPm4xfwv-7" value="SOS Game Systems / Back End" style="rounded=1;whiteSpace=wrap;html=1;" vertex="1" parent="1">
          <mxGeometry x="255" y="240" width="120" height="60" as="geometry" />
        </mxCell>
        <mxCell id="dPLGzWcnf-cAGPm4xfwv-9" value="GUI / Game Screen Front End" style="rounded=1;whiteSpace=wrap;html=1;" vertex="1" parent="1">
          <mxGeometry x="110" y="170" width="120" height="60" as="geometry" />
        </mxCell>
        <mxCell id="dPLGzWcnf-cAGPm4xfwv-10" value="SOS GAME" style="ellipse;whiteSpace=wrap;html=1;" vertex="1" parent="1">
          <mxGeometry x="270" y="120" width="120" height="80" as="geometry" />
        </mxCell>
        <mxCell id="dPLGzWcnf-cAGPm4xfwv-11" value="" style="endArrow=classic;startArrow=classic;html=1;rounded=0;entryX=0;entryY=0.5;entryDx=0;entryDy=0;exitX=0;exitY=0.5;exitDx=0;exitDy=0;" edge="1" parent="1" source="dPLGzWcnf-cAGPm4xfwv-8" target="dPLGzWcnf-cAGPm4xfwv-7">
          <mxGeometry width="50" height="50" relative="1" as="geometry">
            <mxPoint x="230" y="260" as="sourcePoint" />
            <mxPoint x="280" y="210" as="targetPoint" />
            <Array as="points">
              <mxPoint x="160" y="300" />
            </Array>
          </mxGeometry>
        </mxCell>
        <mxCell id="dPLGzWcnf-cAGPm4xfwv-18" value="" style="whiteSpace=wrap;html=1;aspect=fixed;" vertex="1" parent="1">
          <mxGeometry x="440" y="110" width="610" height="610" as="geometry" />
        </mxCell>
        <mxCell id="dPLGzWcnf-cAGPm4xfwv-19" value="GUI Game Start Interface&amp;nbsp;" style="rounded=1;whiteSpace=wrap;html=1;" vertex="1" parent="1">
          <mxGeometry x="470" y="130" width="120" height="60" as="geometry" />
        </mxCell>
        <mxCell id="dPLGzWcnf-cAGPm4xfwv-20" value="" style="endArrow=classic;html=1;rounded=0;entryX=0.377;entryY=0.082;entryDx=0;entryDy=0;entryPerimeter=0;" edge="1" parent="1" target="dPLGzWcnf-cAGPm4xfwv-18">
          <mxGeometry width="50" height="50" relative="1" as="geometry">
            <mxPoint x="590" y="170" as="sourcePoint" />
            <mxPoint x="640" y="120" as="targetPoint" />
          </mxGeometry>
        </mxCell>
        <mxCell id="dPLGzWcnf-cAGPm4xfwv-21" value="Player Input&lt;div&gt;Game mode / Game board size&lt;/div&gt;" style="rounded=1;whiteSpace=wrap;html=1;" vertex="1" parent="1">
          <mxGeometry x="670" y="130" width="120" height="60" as="geometry" />
        </mxCell>
        <mxCell id="dPLGzWcnf-cAGPm4xfwv-22" value="Game Systems / Board Data --Record Input&amp;nbsp;" style="ellipse;whiteSpace=wrap;html=1;" vertex="1" parent="1">
          <mxGeometry x="860" y="160" width="110" height="80" as="geometry" />
        </mxCell>
        <mxCell id="dPLGzWcnf-cAGPm4xfwv-23" value="" style="endArrow=classic;html=1;rounded=0;exitX=1;exitY=0.5;exitDx=0;exitDy=0;entryX=0.083;entryY=0.25;entryDx=0;entryDy=0;entryPerimeter=0;" edge="1" parent="1" source="dPLGzWcnf-cAGPm4xfwv-21" target="dPLGzWcnf-cAGPm4xfwv-22">
          <mxGeometry width="50" height="50" relative="1" as="geometry">
            <mxPoint x="520" y="420" as="sourcePoint" />
            <mxPoint x="570" y="370" as="targetPoint" />
          </mxGeometry>
        </mxCell>
        <mxCell id="dPLGzWcnf-cAGPm4xfwv-26" value="" style="endArrow=classic;html=1;rounded=0;exitX=0.5;exitY=1;exitDx=0;exitDy=0;" edge="1" parent="1" source="dPLGzWcnf-cAGPm4xfwv-9">
          <mxGeometry width="50" height="50" relative="1" as="geometry">
            <mxPoint x="120" y="320" as="sourcePoint" />
            <mxPoint x="160" y="300" as="targetPoint" />
          </mxGeometry>
        </mxCell>
        <mxCell id="dPLGzWcnf-cAGPm4xfwv-28" value="" style="endArrow=classic;html=1;rounded=0;entryX=1;entryY=0.5;entryDx=0;entryDy=0;exitX=0.282;exitY=0.059;exitDx=0;exitDy=0;exitPerimeter=0;" edge="1" parent="1" source="dPLGzWcnf-cAGPm4xfwv-25" target="dPLGzWcnf-cAGPm4xfwv-9">
          <mxGeometry width="50" height="50" relative="1" as="geometry">
            <mxPoint x="250" y="220" as="sourcePoint" />
            <mxPoint x="300" y="170" as="targetPoint" />
          </mxGeometry>
        </mxCell>
        <mxCell id="dPLGzWcnf-cAGPm4xfwv-29" value="" style="endArrow=classic;html=1;rounded=0;exitX=0.127;exitY=0.775;exitDx=0;exitDy=0;exitPerimeter=0;entryX=1;entryY=0.5;entryDx=0;entryDy=0;" edge="1" parent="1" source="dPLGzWcnf-cAGPm4xfwv-22" target="dPLGzWcnf-cAGPm4xfwv-30">
          <mxGeometry width="50" height="50" relative="1" as="geometry">
            <mxPoint x="520" y="420" as="sourcePoint" />
            <mxPoint x="570" y="370" as="targetPoint" />
          </mxGeometry>
        </mxCell>
        <mxCell id="dPLGzWcnf-cAGPm4xfwv-30" value="Player Input S or O" style="rounded=1;whiteSpace=wrap;html=1;" vertex="1" parent="1">
          <mxGeometry x="670" y="220" width="120" height="60" as="geometry" />
        </mxCell>
        <mxCell id="dPLGzWcnf-cAGPm4xfwv-32" value="Game Systems / Board Data --&amp;nbsp; &amp;nbsp;Record Input" style="ellipse;whiteSpace=wrap;html=1;" vertex="1" parent="1">
          <mxGeometry x="855" y="300" width="120" height="80" as="geometry" />
        </mxCell>
        <mxCell id="dPLGzWcnf-cAGPm4xfwv-33" value="" style="endArrow=classic;html=1;rounded=0;exitX=0.583;exitY=1;exitDx=0;exitDy=0;exitPerimeter=0;entryX=0.083;entryY=0.25;entryDx=0;entryDy=0;entryPerimeter=0;" edge="1" parent="1" source="dPLGzWcnf-cAGPm4xfwv-30" target="dPLGzWcnf-cAGPm4xfwv-32">
          <mxGeometry width="50" height="50" relative="1" as="geometry">
            <mxPoint x="520" y="420" as="sourcePoint" />
            <mxPoint x="570" y="370" as="targetPoint" />
          </mxGeometry>
        </mxCell>
        <mxCell id="dPLGzWcnf-cAGPm4xfwv-34" value="Repeat Player Input Cycle until win condition met&amp;nbsp;" style="rounded=1;whiteSpace=wrap;html=1;" vertex="1" parent="1">
          <mxGeometry x="630" y="300" width="120" height="60" as="geometry" />
        </mxCell>
        <mxCell id="dPLGzWcnf-cAGPm4xfwv-36" value="" style="endArrow=classic;html=1;rounded=0;exitX=0;exitY=0.25;exitDx=0;exitDy=0;entryX=0.975;entryY=0.243;entryDx=0;entryDy=0;entryPerimeter=0;" edge="1" parent="1" source="dPLGzWcnf-cAGPm4xfwv-34" target="dPLGzWcnf-cAGPm4xfwv-38">
          <mxGeometry width="50" height="50" relative="1" as="geometry">
            <mxPoint x="520" y="420" as="sourcePoint" />
            <mxPoint x="570" y="370" as="targetPoint" />
          </mxGeometry>
        </mxCell>
        <mxCell id="dPLGzWcnf-cAGPm4xfwv-38" value="Game Systems / Board Data -- Check for win condition&amp;nbsp;" style="ellipse;whiteSpace=wrap;html=1;" vertex="1" parent="1">
          <mxGeometry x="490" y="345" width="120" height="70" as="geometry" />
        </mxCell>
        <mxCell id="dPLGzWcnf-cAGPm4xfwv-39" value="" style="endArrow=classic;html=1;rounded=0;exitX=0.917;exitY=0.771;exitDx=0;exitDy=0;exitPerimeter=0;entryX=0;entryY=0.75;entryDx=0;entryDy=0;" edge="1" parent="1" source="dPLGzWcnf-cAGPm4xfwv-38" target="dPLGzWcnf-cAGPm4xfwv-34">
          <mxGeometry width="50" height="50" relative="1" as="geometry">
            <mxPoint x="520" y="420" as="sourcePoint" />
            <mxPoint x="570" y="370" as="targetPoint" />
          </mxGeometry>
        </mxCell>
        <mxCell id="dPLGzWcnf-cAGPm4xfwv-42" value="" style="shape=link;html=1;rounded=0;width=6;" edge="1" parent="1">
          <mxGeometry width="100" relative="1" as="geometry">
            <mxPoint x="900" y="229" as="sourcePoint" />
            <mxPoint x="930" y="229" as="targetPoint" />
          </mxGeometry>
        </mxCell>
        <mxCell id="dPLGzWcnf-cAGPm4xfwv-43" value="" style="shape=link;html=1;rounded=0;width=6;" edge="1" parent="1">
          <mxGeometry width="100" relative="1" as="geometry">
            <mxPoint x="895" y="370" as="sourcePoint" />
            <mxPoint x="935" y="370" as="targetPoint" />
          </mxGeometry>
        </mxCell>
        <mxCell id="dPLGzWcnf-cAGPm4xfwv-45" value="Win condition met" style="rounded=1;whiteSpace=wrap;html=1;" vertex="1" parent="1">
          <mxGeometry x="670" y="460" width="120" height="60" as="geometry" />
        </mxCell>
        <mxCell id="dPLGzWcnf-cAGPm4xfwv-46" value="" style="endArrow=classic;html=1;rounded=0;entryX=0.017;entryY=0.383;entryDx=0;entryDy=0;entryPerimeter=0;" edge="1" parent="1" source="dPLGzWcnf-cAGPm4xfwv-38" target="dPLGzWcnf-cAGPm4xfwv-45">
          <mxGeometry width="50" height="50" relative="1" as="geometry">
            <mxPoint x="520" y="420" as="sourcePoint" />
            <mxPoint x="570" y="370" as="targetPoint" />
          </mxGeometry>
        </mxCell>
        <mxCell id="dPLGzWcnf-cAGPm4xfwv-47" value="Game Systems / Board Data --&amp;nbsp; &amp;nbsp;Record Input&amp;nbsp;" style="ellipse;whiteSpace=wrap;html=1;" vertex="1" parent="1">
          <mxGeometry x="855" y="450" width="120" height="80" as="geometry" />
        </mxCell>
        <mxCell id="dPLGzWcnf-cAGPm4xfwv-48" value="" style="endArrow=classic;html=1;rounded=0;exitX=1;exitY=0.5;exitDx=0;exitDy=0;entryX=0;entryY=0.5;entryDx=0;entryDy=0;" edge="1" parent="1" source="dPLGzWcnf-cAGPm4xfwv-45" target="dPLGzWcnf-cAGPm4xfwv-47">
          <mxGeometry width="50" height="50" relative="1" as="geometry">
            <mxPoint x="830" y="590" as="sourcePoint" />
            <mxPoint x="880" y="540" as="targetPoint" />
          </mxGeometry>
        </mxCell>
        <mxCell id="dPLGzWcnf-cAGPm4xfwv-49" value="" style="shape=link;html=1;rounded=0;width=8;" edge="1" parent="1">
          <mxGeometry width="100" relative="1" as="geometry">
            <mxPoint x="895" y="520" as="sourcePoint" />
            <mxPoint x="935" y="520" as="targetPoint" />
          </mxGeometry>
        </mxCell>
        <mxCell id="dPLGzWcnf-cAGPm4xfwv-50" value="GUI / Game Screen Front End&amp;nbsp;&lt;div&gt;-- Show updated board state&lt;/div&gt;" style="rounded=1;whiteSpace=wrap;html=1;" vertex="1" parent="1">
          <mxGeometry x="730" y="385" width="120" height="60" as="geometry" />
        </mxCell>
        <mxCell id="dPLGzWcnf-cAGPm4xfwv-51" value="" style="endArrow=classic;html=1;rounded=0;exitX=0;exitY=1;exitDx=0;exitDy=0;entryX=0.933;entryY=0;entryDx=0;entryDy=0;entryPerimeter=0;" edge="1" parent="1" source="dPLGzWcnf-cAGPm4xfwv-32" target="dPLGzWcnf-cAGPm4xfwv-50">
          <mxGeometry width="50" height="50" relative="1" as="geometry">
            <mxPoint x="520" y="420" as="sourcePoint" />
            <mxPoint x="570" y="370" as="targetPoint" />
          </mxGeometry>
        </mxCell>
        <mxCell id="dPLGzWcnf-cAGPm4xfwv-52" value="" style="endArrow=classic;html=1;rounded=0;exitX=0;exitY=0.5;exitDx=0;exitDy=0;entryX=0.7;entryY=1.017;entryDx=0;entryDy=0;entryPerimeter=0;" edge="1" parent="1" source="dPLGzWcnf-cAGPm4xfwv-50" target="dPLGzWcnf-cAGPm4xfwv-34">
          <mxGeometry width="50" height="50" relative="1" as="geometry">
            <mxPoint x="520" y="420" as="sourcePoint" />
            <mxPoint x="570" y="370" as="targetPoint" />
          </mxGeometry>
        </mxCell>
        <mxCell id="dPLGzWcnf-cAGPm4xfwv-53" value="" style="endArrow=classic;html=1;rounded=0;exitX=1.033;exitY=0.367;exitDx=0;exitDy=0;exitPerimeter=0;entryX=0;entryY=0.5;entryDx=0;entryDy=0;" edge="1" parent="1" source="dPLGzWcnf-cAGPm4xfwv-34" target="dPLGzWcnf-cAGPm4xfwv-32">
          <mxGeometry width="50" height="50" relative="1" as="geometry">
            <mxPoint x="520" y="420" as="sourcePoint" />
            <mxPoint x="570" y="370" as="targetPoint" />
          </mxGeometry>
        </mxCell>
        <mxCell id="dPLGzWcnf-cAGPm4xfwv-54" value="Game Systems / Board Data -- Determine Win or Draw" style="ellipse;whiteSpace=wrap;html=1;" vertex="1" parent="1">
          <mxGeometry x="855" y="580" width="120" height="80" as="geometry" />
        </mxCell>
        <mxCell id="dPLGzWcnf-cAGPm4xfwv-55" value="" style="endArrow=classic;html=1;rounded=0;exitX=0.5;exitY=1;exitDx=0;exitDy=0;" edge="1" parent="1" source="dPLGzWcnf-cAGPm4xfwv-47" target="dPLGzWcnf-cAGPm4xfwv-54">
          <mxGeometry width="50" height="50" relative="1" as="geometry">
            <mxPoint x="520" y="420" as="sourcePoint" />
            <mxPoint x="570" y="370" as="targetPoint" />
          </mxGeometry>
        </mxCell>
        <mxCell id="dPLGzWcnf-cAGPm4xfwv-56" value="GUI / Game Screen Front End -- Announce Winner or Draw&amp;nbsp;" style="rounded=1;whiteSpace=wrap;html=1;" vertex="1" parent="1">
          <mxGeometry x="670" y="590" width="120" height="60" as="geometry" />
        </mxCell>
        <mxCell id="dPLGzWcnf-cAGPm4xfwv-57" value="" style="endArrow=classic;html=1;rounded=0;entryX=1;entryY=0.5;entryDx=0;entryDy=0;exitX=0;exitY=0.5;exitDx=0;exitDy=0;" edge="1" parent="1" source="dPLGzWcnf-cAGPm4xfwv-54" target="dPLGzWcnf-cAGPm4xfwv-56">
          <mxGeometry width="50" height="50" relative="1" as="geometry">
            <mxPoint x="850" y="620" as="sourcePoint" />
            <mxPoint x="900" y="570" as="targetPoint" />
          </mxGeometry>
        </mxCell>
        <mxCell id="dPLGzWcnf-cAGPm4xfwv-58" value="Game Systems / Board Data -- Clear game memory &amp;amp; return to start" style="ellipse;whiteSpace=wrap;html=1;" vertex="1" parent="1">
          <mxGeometry x="460" y="520" width="120" height="80" as="geometry" />
        </mxCell>
        <mxCell id="dPLGzWcnf-cAGPm4xfwv-59" value="" style="endArrow=classic;html=1;rounded=0;exitX=0.025;exitY=0.633;exitDx=0;exitDy=0;exitPerimeter=0;entryX=1;entryY=0.5;entryDx=0;entryDy=0;" edge="1" parent="1" source="dPLGzWcnf-cAGPm4xfwv-56" target="dPLGzWcnf-cAGPm4xfwv-58">
          <mxGeometry width="50" height="50" relative="1" as="geometry">
            <mxPoint x="520" y="420" as="sourcePoint" />
            <mxPoint x="570" y="370" as="targetPoint" />
          </mxGeometry>
        </mxCell>
        <mxCell id="dPLGzWcnf-cAGPm4xfwv-60" value="" style="curved=1;endArrow=classic;html=1;rounded=0;exitX=0;exitY=0;exitDx=0;exitDy=0;entryX=0.167;entryY=1;entryDx=0;entryDy=0;entryPerimeter=0;" edge="1" parent="1" source="dPLGzWcnf-cAGPm4xfwv-58" target="dPLGzWcnf-cAGPm4xfwv-19">
          <mxGeometry width="50" height="50" relative="1" as="geometry">
            <mxPoint x="520" y="420" as="sourcePoint" />
            <mxPoint x="570" y="370" as="targetPoint" />
            <Array as="points">
              <mxPoint x="510" y="450" />
              <mxPoint x="440" y="420" />
              <mxPoint x="480" y="370" />
            </Array>
          </mxGeometry>
        </mxCell>
        <mxCell id="dPLGzWcnf-cAGPm4xfwv-62" value="" style="shape=link;html=1;rounded=0;width=6;" edge="1" parent="1">
          <mxGeometry width="100" relative="1" as="geometry">
            <mxPoint x="500" y="590" as="sourcePoint" />
            <mxPoint x="540" y="590" as="targetPoint" />
          </mxGeometry>
        </mxCell>
        <mxCell id="dPLGzWcnf-cAGPm4xfwv-63" value="" style="shape=link;html=1;rounded=0;width=6;" edge="1" parent="1">
          <mxGeometry width="100" relative="1" as="geometry">
            <mxPoint x="895" y="650" as="sourcePoint" />
            <mxPoint x="935" y="650" as="targetPoint" />
          </mxGeometry>
        </mxCell>
      </root>
    </mxGraphModel>
  </diagram>
</mxfile>
